<svg width="40" height="40" viewBox="0 0 40 40" fill="none" xmlns="http://www.w3.org/2000/svg">
    <g clip-path="url(#clip0_83_2742)">
        <path
            d="M20 40C31.0457 40 40 31.0457 40 20C40 8.9543 31.0457 0 20 0C8.9543 0 0 8.9543 0 20C0 31.0457 8.9543 40 20 40Z"
            fill="#2E3148" />
        <path
            d="M20.0005 31.6054C26.4097 31.6054 31.6054 26.4097 31.6054 20.0005C31.6054 13.5912 26.4097 8.39551 20.0005 8.39551C13.5912 8.39551 8.39551 13.5912 8.39551 20.0005C8.39551 26.4097 13.5912 31.6054 20.0005 31.6054Z"
            fill="#1B1E36" />
        <path
            d="M20.0413 2.55176C17.8824 2.55176 16.1318 10.3822 16.1318 20.0415C16.1318 29.7009 17.8824 37.5313 20.0413 37.5313C22.2002 37.5313 23.9507 29.7009 23.9507 20.0415C23.9507 10.3822 22.2002 2.55176 20.0413 2.55176ZM20.3112 36.5442C20.0643 36.8735 19.8174 36.6265 19.8174 36.6265C18.8232 35.4745 18.3261 33.3343 18.3261 33.3343C16.587 27.7377 17.001 15.7212 17.001 15.7212C17.8182 6.18136 19.305 3.92776 19.8109 3.42744C19.8625 3.37637 19.9306 3.34517 20.003 3.33932C20.0754 3.33346 20.1475 3.35334 20.2067 3.39544C20.9408 3.9156 21.5565 6.09096 21.5565 6.09096C23.3746 12.8399 23.2099 19.1774 23.2099 19.1774C23.3746 24.6918 22.2989 30.8646 22.2989 30.8646C21.4709 35.5558 20.3112 36.5442 20.3112 36.5442Z"
            fill="#6F7390" />
        <path
            d="M35.2115 11.3373C34.1367 9.46401 26.4741 11.8426 18.0915 16.6493C9.70899 21.456 3.79603 26.8715 4.87011 28.744C5.94419 30.6165 13.6075 28.2387 21.9901 23.432C30.3727 18.6253 36.2856 13.2098 35.2115 11.3373ZM5.86179 28.487C5.45027 28.4352 5.54323 28.097 5.54323 28.097C6.04803 26.6616 7.65443 25.1653 7.65443 25.1653C11.6453 20.8715 22.2751 15.2509 22.2751 15.2509C30.9557 11.2122 33.652 11.3826 34.336 11.5709C34.4062 11.5905 34.4672 11.6343 34.5082 11.6946C34.5492 11.7548 34.5676 11.8277 34.56 11.9002C34.4778 12.7962 32.8933 14.4122 32.8933 14.4122C27.9474 19.3496 22.368 22.3611 22.368 22.3611C17.6667 25.2491 11.7771 27.3866 11.7771 27.3866C7.29571 29.0015 5.86195 28.487 5.86195 28.487H5.86179Z"
            fill="#6F7390" />
        <path
            d="M35.1733 28.8061C36.2565 26.9378 30.3584 21.4975 22.0053 16.6546C13.6522 11.8117 5.99056 9.40374 4.90832 11.2753C3.82608 13.1468 9.7232 18.5839 18.0811 23.4268C26.439 28.2697 34.091 30.6778 35.1733 28.8061ZM5.62608 11.9972C5.46608 11.6178 5.80384 11.5265 5.80384 11.5265C7.2992 11.2441 9.39968 11.8876 9.39968 11.8876C15.1141 13.1889 25.3037 19.5716 25.3037 19.5716C33.149 25.0613 34.3522 27.4794 34.5325 28.1658C34.5508 28.2362 34.5437 28.3108 34.5124 28.3765C34.481 28.4422 34.4275 28.4946 34.3613 28.5247C33.5432 28.8993 31.3522 28.3412 31.3522 28.3412C24.599 26.5305 19.1982 23.2129 19.1982 23.2129C14.3456 20.5956 9.5472 16.5684 9.5472 16.5684C5.90112 13.4985 5.6272 12.0013 5.6272 12.0013L5.62608 11.9972Z"
            fill="#6F7390" />
        <path
            d="M20 22.0576C21.1364 22.0576 22.0576 21.1364 22.0576 20C22.0576 18.8636 21.1364 17.9424 20 17.9424C18.8636 17.9424 17.9424 18.8636 17.9424 20C17.9424 21.1364 18.8636 22.0576 20 22.0576Z"
            fill="#B7B9C8" />
        <path
            d="M28.4366 13.3334C29.0957 13.3334 29.63 12.7806 29.63 12.0988C29.63 11.417 29.0957 10.8643 28.4366 10.8643C27.7775 10.8643 27.2432 11.417 27.2432 12.0988C27.2432 12.7806 27.7775 13.3334 28.4366 13.3334Z"
            fill="#B7B9C8" />
        <path
            d="M8.84774 17.5306C9.50686 17.5306 10.0412 16.9779 10.0412 16.2961C10.0412 15.6143 9.50686 15.0615 8.84774 15.0615C8.18862 15.0615 7.6543 15.6143 7.6543 16.2961C7.6543 16.9779 8.18862 17.5306 8.84774 17.5306Z"
            fill="#B7B9C8" />
        <path
            d="M17.5723 32.6752C18.2315 32.6752 18.7658 32.1224 18.7658 31.4406C18.7658 30.7588 18.2315 30.2061 17.5723 30.2061C16.9132 30.2061 16.3789 30.7588 16.3789 31.4406C16.3789 32.1224 16.9132 32.6752 17.5723 32.6752Z"
            fill="#B7B9C8" />
    </g>
    <defs>
        <clipPath id="clip0_83_2742">
            <rect width="40" height="40" fill="white" />
        </clipPath>
    </defs>
</svg>