<svg width="44" height="44" viewBox="0 0 44 44" fill="none" xmlns="http://www.w3.org/2000/svg">
    <g clip-path="url(#clip0_95_85)">
        <path
            d="M21.8605 43.5556C33.9749 43.5556 43.7209 33.8464 43.7209 21.7778C43.7209 9.70919 33.9749 0 21.8605 0C9.74605 0 0 9.70919 0 21.7778C0 33.8464 9.74605 43.5556 21.8605 43.5556Z"
            fill="#2775CA" />
        <path
            d="M27.8723 25.2259C27.8723 22.05 25.9596 20.9611 22.134 20.5075C19.4014 20.1445 18.8549 19.4186 18.8549 18.1481C18.8549 16.8776 19.7658 16.0611 21.5875 16.0611C23.227 16.0611 24.1379 16.6056 24.5933 17.9667C24.6844 18.2389 24.9577 18.4203 25.2309 18.4203H26.6882C27.0526 18.4203 27.3258 18.1481 27.3258 17.7853V17.6945C26.9614 15.6981 25.3219 14.1556 23.227 13.9742V11.7964C23.227 11.4333 22.9537 11.1611 22.4984 11.0703H21.1321C20.7677 11.0703 20.4944 11.3425 20.4033 11.7964V13.8833C17.6707 14.2464 15.9402 16.0611 15.9402 18.3297C15.9402 21.3242 17.7619 22.5036 21.5875 22.9575C24.1379 23.4111 24.9577 23.9556 24.9577 25.4075C24.9577 26.8594 23.6824 27.8575 21.9519 27.8575C19.5835 27.8575 18.7637 26.8592 18.4905 25.4981C18.3996 25.1353 18.1263 24.9536 17.853 24.9536H16.3044C15.9402 24.9536 15.667 25.2259 15.667 25.5889V25.6797C16.0312 27.9481 17.4886 29.5814 20.4944 30.0353V32.2131C20.4944 32.5759 20.7677 32.8481 21.223 32.9389H22.5893C22.9537 32.9389 23.227 32.6667 23.3182 32.2131V30.0353C26.0507 29.5814 27.8723 27.6759 27.8723 25.2259Z"
            fill="white" />
        <path
            d="M17.2154 34.7533C10.1107 32.2127 6.46724 24.3182 9.10886 17.331C10.4751 13.5199 13.4809 10.6163 17.2154 9.25519C17.5798 9.07378 17.7619 8.80156 17.7619 8.34771V7.07742C17.7619 6.71438 17.5798 6.44216 17.2154 6.35156C17.1242 6.35156 16.9421 6.35156 16.851 6.44216C8.19793 9.16438 3.46142 18.3293 6.19398 26.9496C7.83351 32.031 11.7503 35.933 16.851 37.5663C17.2154 37.7477 17.5798 37.5663 17.6707 37.2033C17.7619 37.1127 17.7619 37.0219 17.7619 36.8405V35.5699C17.7619 35.2977 17.4886 34.9349 17.2154 34.7533ZM26.8705 6.44216C26.5061 6.26075 26.1417 6.44216 26.0507 6.80519C25.9596 6.89601 25.9596 6.9866 25.9596 7.16823V8.43853C25.9596 8.80156 26.2328 9.16438 26.5061 9.34601C33.6107 11.8866 37.2542 19.781 34.6126 26.7682C33.2463 30.5793 30.2405 33.483 26.5061 34.8441C26.1417 35.0255 25.9596 35.2977 25.9596 35.7516V37.0219C25.9596 37.3849 26.1417 37.6571 26.5061 37.7477C26.5972 37.7477 26.7793 37.7477 26.8705 37.6571C35.5235 34.9349 40.26 25.7699 37.5275 17.1496C35.8879 11.9774 31.88 8.07549 26.8705 6.44216Z"
            fill="white" />
    </g>
    <defs>
        <clipPath id="clip0_95_85">
            <rect width="43.7209" height="43.5556" fill="white" />
        </clipPath>
    </defs>
</svg>