<svg width="41" height="41" viewBox="0 0 41 41" fill="none" xmlns="http://www.w3.org/2000/svg">
    <path
        d="M20.8604 40.7773C31.906 40.7773 40.8604 31.823 40.8604 20.7773C40.8604 9.73165 31.906 0.777344 20.8604 0.777344C9.81466 0.777344 0.860352 9.73165 0.860352 20.7773C0.860352 31.823 9.81466 40.7773 20.8604 40.7773Z"
        fill="#26A17B" />
    <path
        d="M23.1341 21.6818V21.6787C23.0018 21.6879 22.3187 21.7279 20.7987 21.7279C19.5834 21.7279 18.731 21.6941 18.4295 21.6787V21.6818C13.7557 21.4756 10.2695 20.6633 10.2695 19.6879C10.2695 18.7156 13.7587 17.9002 18.4295 17.6941V20.8725C18.7341 20.8941 19.611 20.9464 20.8203 20.9464C22.2726 20.9464 22.9987 20.8848 23.1341 20.8725V17.6971C27.7987 17.9064 31.2757 18.7187 31.2757 19.691C31.2757 20.6633 27.7957 21.4756 23.1341 21.6848M23.1341 17.3679V14.5248H29.6418V10.1895H11.9249V14.5248H18.4326V17.3679C13.1434 17.611 9.16797 18.6571 9.16797 19.9125C9.16797 21.1679 13.1464 22.2141 18.4326 22.4602V31.5741H23.1372V22.4602C28.4172 22.2171 32.3864 21.171 32.3864 19.9156C32.3864 18.6633 28.4172 17.6141 23.1372 17.371"
        fill="white" />
</svg>